<svg xmlns="http://www.w3.org/2000/svg" width="247" height="147" viewBox="0 0 247 147">
    <g fill="none" fill-rule="evenodd">
        <g>
            <g>
                <g>
                    <g transform="translate(-617 -266) translate(365 222) translate(252 44) translate(0 10)">
                        <circle cx="49" cy="9" r="9" stroke="#FFEA28" stroke-width="4"/>
                        <g fill="#D4E4EF" transform="translate(0 20)">
                            <rect width="133" height="38" x="114" rx="19"/>
                            <rect width="50" height="29" y="62" rx="14.5"/>
                            <rect width="50" height="29" x="80" y="88" rx="14.5"/>
                        </g>
                        <g>
                            <path fill="#D1F0FF" d="M91.242 41.881L102.726 49.006 104.198 54.552 104.198 105.873 99.347 110.68 6.527 110.68 1.451 105.873 1.451 50.822 14.044 41.881 14.044 56.966 41.707 78.347 51.073 72.346 54.626 72.346 64.141 78.347 91.242 56.966z" transform="translate(52 5)"/>
                            <path fill="#FFF" d="M94.749 1.468L102.076 3.281 104.198 12.552 104.198 28.523 97.563 30.304 91.571 30.304 91.571 52.911 91.571 58.222 64.141 78.347 54.626 72.346 51.073 72.346 43.903 78.347 28.37 68.451 14.044 56.966 14.044 12.552 14.044 5.733 18.223 1.468z" transform="translate(52 5)"/>
                            <path fill="#0082C3" d="M97.564 0c4.293 0 7.786 3.5 7.786 7.804v17.888c0 3.37-2.736 6.113-6.1 6.113h-6.199v8.956l8.813 5.565c2.475 1.563 4.018 4.215 4.128 7.094.005.128.008.256.008.388v49.025c0 5.055-4.032 9.167-8.989 9.167H8.988C4.032 112 0 107.888 0 102.833V53.808c0-.131.003-.26.007-.387.11-2.88 1.654-5.532 4.129-7.094l8.082-5.104V26.914c0-.906.732-1.64 1.637-1.64.904 0 1.637.734 1.637 1.64V55.44L42.774 76.5l5.407-4.107c2.837-2.154 6.801-2.154 9.638 0l5.407 4.107 26.551-20.498v-48.2c0-1.684.536-3.245 1.444-4.522H20.012c-2.493 0-4.52 2.033-4.52 4.531v11.431c0 .907-.733 1.641-1.638 1.641-.904 0-1.637-.734-1.637-1.64V7.811C12.217 3.504 15.714 0 20.012 0zm4.29 50.822L65.932 78.555l5.714 4.34c.72.546.862 1.576.316 2.298s-1.573.864-2.294.317l-13.826-10.5c-1.7-1.29-3.984-1.291-5.683 0l-43.63 33.134c.745.368 1.58.575 2.46.575h88.023c.881 0 1.716-.207 2.461-.576l-23.7-17.998c-.72-.547-.862-1.576-.316-2.298.546-.723 1.573-.865 2.293-.317l24.154 18.342c.522-.887.823-1.928.823-3.04V53.808c0-.088-.002-.176-.005-.262-.038-.977-.344-1.913-.866-2.723zm-97.71 0c-.52.81-.828 1.746-.865 2.724-.003.085-.005.173-.005.262v49.025c0 1.112.3 2.152.823 3.04l35.972-27.318zm39.894-7.374c1.753 0 3.18 1.41 3.18 3.142v7.234c0 1.732-1.427 3.142-3.18 3.142H28.235c-1.754 0-3.18-1.41-3.18-3.142V46.59c0-1.732 1.426-3.142 3.18-3.142zm34.326 9.655c.894 0 1.618.649 1.618 1.449S79.258 56 78.364 56H52.69c-.893 0-1.617-.648-1.617-1.448 0-.8.724-1.449 1.617-1.449zm-34.46-6.38H28.37v6.967h15.533v-6.967zM93.05 44.64v8.836l6.296-4.86-6.296-3.976zm-80.834.461l-5.564 3.514 5.564 4.296v-7.81zm66.147-1.653c.894 0 1.618.648 1.618 1.449 0 .8-.724 1.448-1.618 1.448H52.69c-.893 0-1.617-.649-1.617-1.448 0-.8.724-1.449 1.617-1.449zm.954-10.62c.899 0 1.627.648 1.627 1.448 0 .8-.728 1.448-1.627 1.448H27.646c-.899 0-1.628-.648-1.628-1.448 0-.8.729-1.448 1.628-1.448zM97.564 3.28c-2.488 0-4.513 2.03-4.513 4.523v20.72h6.2c1.557 0 2.825-1.27 2.825-2.832V7.804c0-2.494-2.024-4.523-4.512-4.523zM79.318 22.207c.899 0 1.627.648 1.627 1.448 0 .8-.728 1.448-1.627 1.448H27.646c-.899 0-1.628-.648-1.628-1.448 0-.8.729-1.448 1.628-1.448zm-.021-9.655c.91 0 1.648.648 1.648 1.448 0 .8-.738 1.448-1.648 1.448H36.34c-.911 0-1.65-.648-1.65-1.448 0-.8.739-1.448 1.65-1.448z" transform="translate(52 5)"/>
                        </g>
                    </g>
                    <path fill="#5AC8FF" d="M175.5 0c1.105 0 2 .895 2 2l-.001 2.5H180c1.105 0 2 .895 2 2s-.895 2-2 2h-2.501l.001 2.5c0 1.105-.895 2-2 2s-2-.895-2-2l-.001-2.5H171c-1.105 0-2-.895-2-2s.895-2 2-2h2.499L173.5 2c0-1.105.895-2 2-2z" transform="translate(-617 -266) translate(365 222) translate(252 44)"/>
                    <path fill="#EC6607" d="M194.833 99.667c.553 0 1 .447 1 1V104c0 .552-.447 1-1 1h-.666c-.553 0-1-.448-1-1v-3.333c0-.553.447-1 1-1h.666zm6.098-2.122l2.357 2.357c.39.39.39 1.024 0 1.415l-.471.471c-.39.39-1.024.39-1.415 0l-2.357-2.357c-.39-.39-.39-1.024 0-1.414l.472-.472c.39-.39 1.023-.39 1.414 0zm-11.448 0l.472.472c.39.39.39 1.023 0 1.414l-2.357 2.357c-.39.39-1.024.39-1.415 0l-.471-.471c-.39-.39-.39-1.024 0-1.415l2.357-2.357c.39-.39 1.024-.39 1.414 0zm16.017-5.878c.552 0 1 .447 1 1v.666c0 .553-.448 1-1 1h-3.333c-.553 0-1-.447-1-1v-.666c0-.553.447-1 1-1h3.333zm-18.667 0c.553 0 1 .447 1 1v.666c0 .553-.447 1-1 1H183.5c-.552 0-1-.447-1-1v-.666c0-.553.448-1 1-1h3.333zm15.984-7.455l.471.471c.39.39.39 1.024 0 1.415l-2.357 2.357c-.39.39-1.024.39-1.414 0l-.472-.472c-.39-.39-.39-1.023 0-1.414l2.357-2.357c.39-.39 1.024-.39 1.415 0zm-15.22 0l2.358 2.357c.39.39.39 1.024 0 1.414l-.472.472c-.39.39-1.023.39-1.414 0l-2.357-2.357c-.39-.39-.39-1.024 0-1.415l.471-.471c.39-.39 1.024-.39 1.415 0zM194.834 81c.553 0 1 .448 1 1v3.333c0 .553-.447 1-1 1h-.666c-.553 0-1-.447-1-1V82c0-.552.447-1 1-1h.666z" transform="translate(-617 -266) translate(365 222) translate(252 44)"/>
                </g>
            </g>
        </g>
    </g>
</svg>
